<svg width="1272" height="897" viewBox="0 0 1272 897" fill="none" xmlns="http://www.w3.org/2000/svg">
<rect x="-0.000976562" width="1441" height="1215" fill="#F7EBDA"/>
<g style="mix-blend-mode:overlay">
<path fill-rule="evenodd" clip-rule="evenodd" d="M1050.7 16.3229C1050.1 23.8446 1046.8 30.8403 1041.55 35.7712C1036.29 40.7019 1029.51 43.1638 1022.68 42.6152C1015.86 42.0667 1009.55 38.5526 1005.15 32.8461C1000.76 27.1394 998.627 19.7079 999.234 12.1862C999.234 12.1862 1013.44 19.572 1024.97 14.2545C1036.5 8.93698 1050.7 16.3229 1050.7 16.3229ZM1057.76 36.2982C1056.13 39.2004 1054.24 41.8022 1052.17 43.9589C1050.91 44.997 1049.83 45.9798 1048.83 46.8913C1043.61 51.6692 1040.52 54.4891 1022.8 53.0651C1004.32 51.5793 1002.17 48.8885 996.935 42.3371C996.195 41.4115 995.394 40.4089 994.477 39.3217C987.068 30.5393 987.316 22.3163 988.149 12L995.502 12.591C994.316 27.2856 1000.07 34.8529 1000.07 34.8529C1000.07 34.8529 1004.98 44.6772 1023.36 46.1546C1041.74 47.632 1047.05 38.6293 1047.05 38.6293C1047.05 38.6293 1054.21 28.6195 1055.19 16.518L1062.9 17.1374C1063.87 16.9202 1064.88 16.8189 1065.89 16.8402C1068.46 16.8939 1070.94 17.7237 1072.98 19.2066C1075.01 20.6895 1076.49 22.7463 1077.2 25.0717C1077.9 27.3971 1077.79 29.8672 1076.89 32.1151C1075.98 34.363 1074.32 36.269 1072.17 37.55C1070.01 38.831 1067.46 39.4189 1064.9 39.2263C1062.35 39.0337 1059.92 38.0707 1057.98 36.4807C1057.9 36.4206 1057.83 36.3598 1057.76 36.2982ZM1062.64 23.4387C1063.58 22.8787 1064.69 22.591 1065.82 22.6146C1067.06 22.6406 1068.26 23.043 1069.25 23.762C1070.24 24.481 1070.96 25.4783 1071.3 26.6058C1071.64 27.7333 1071.59 28.931 1071.15 30.0209C1070.71 31.1108 1069.9 32.035 1068.86 32.6561C1067.81 33.2773 1066.58 33.5623 1065.34 33.4689C1064.1 33.3756 1062.92 32.9087 1061.98 32.1377C1061.37 31.6417 1060.88 31.0369 1060.54 30.3642C1061.4 28.1384 1062.11 25.8141 1062.64 23.4387ZM988.787 55.5511L1055.9 60.9451C1057.17 61.0467 1058.1 62.29 1057.98 63.7222C1057.86 65.1544 1056.75 66.233 1055.48 66.1315L988.369 60.7375C987.105 60.6359 986.174 59.3926 986.29 57.9604C986.406 56.5282 987.524 55.4496 988.787 55.5511ZM648.686 86.9197C649.643 90.4824 649.276 94.2425 647.666 97.3731C646.057 100.504 643.336 102.748 640.104 103.612C636.871 104.477 633.39 103.891 630.428 101.983C627.466 100.075 625.264 97.0015 624.308 93.4389C624.308 93.4389 632.062 94.5147 636.497 90.1793C640.932 85.8438 648.686 86.9197 648.686 86.9197ZM655.216 94.9629C654.945 96.565 654.503 98.0722 653.904 99.4039C653.491 100.09 653.157 100.718 652.848 101.301C651.227 104.356 650.27 106.16 641.877 108.404C633.121 110.745 631.689 109.858 628.203 107.698C627.711 107.393 627.177 107.062 626.576 106.712C621.722 103.881 620.484 100.054 619.173 95.1675L622.655 94.2362C624.524 101.196 628.416 103.739 628.416 103.739C628.416 103.739 632.292 107.459 640.998 105.131C649.705 102.802 650.671 97.788 650.671 97.788C650.671 97.788 652.322 92.0076 650.783 86.2757L654.433 85.2995C654.847 85.0399 655.294 84.8283 655.766 84.6718C656.954 84.2771 658.234 84.2527 659.416 84.6022C660.597 84.9518 661.616 85.6566 662.323 86.6121C663.029 87.5676 663.384 88.7227 663.336 89.9061C663.288 91.0895 662.839 92.2381 662.056 93.1811C661.273 94.1242 660.197 94.8117 658.988 95.1414C657.78 95.4711 656.502 95.4254 655.346 95.0113C655.303 94.9956 655.259 94.9795 655.216 94.9629ZM655.35 88.2432C655.694 87.8304 656.155 87.5171 656.679 87.3433C657.255 87.152 657.875 87.1402 658.448 87.3096C659.021 87.4791 659.515 87.8208 659.858 88.2841C660.2 88.7474 660.373 89.3075 660.349 89.8813C660.326 90.4551 660.108 91.012 659.729 91.4692C659.349 91.9266 658.827 92.2599 658.241 92.4197C657.655 92.5796 657.036 92.5575 656.475 92.3567C656.115 92.2275 655.791 92.0288 655.522 91.7752C655.553 90.6096 655.497 89.4234 655.35 88.2432ZM626.623 115.116L658.412 106.615C659.01 106.455 659.643 106.875 659.825 107.554C660.007 108.232 659.67 108.912 659.071 109.072L627.283 117.572C626.684 117.732 626.051 117.312 625.869 116.634C625.687 115.955 626.025 115.276 626.623 115.116ZM235.998 162.77C237.739 169.254 237.071 176.097 234.142 181.794C231.212 187.491 226.261 191.576 220.378 193.149C214.494 194.723 208.16 193.656 202.769 190.184C197.378 186.711 193.371 181.118 191.63 174.634C191.63 174.634 205.742 176.592 213.814 168.702C221.885 160.812 235.998 162.77 235.998 162.77ZM247.882 177.408C247.389 180.324 246.584 183.067 245.495 185.49C244.741 186.738 244.134 187.882 243.572 188.943L243.571 188.943C240.621 194.503 238.879 197.785 223.606 201.869C207.67 206.131 205.064 204.516 198.72 200.585L198.72 200.585C197.824 200.029 196.853 199.428 195.759 198.79C186.924 193.637 184.672 186.673 182.285 177.78L188.623 176.085C192.024 188.752 199.107 193.38 199.107 193.38C199.107 193.38 206.161 200.15 222.006 195.912C237.852 191.675 239.61 182.549 239.61 182.549C239.61 182.549 242.614 172.029 239.813 161.598L246.457 159.821C247.209 159.349 248.023 158.964 248.882 158.679C251.045 157.96 253.375 157.916 255.524 158.552C257.674 159.188 259.529 160.471 260.815 162.21C262.1 163.949 262.747 166.051 262.66 168.205C262.573 170.358 261.756 172.449 260.33 174.165C258.904 175.881 256.946 177.133 254.747 177.733C252.547 178.333 250.223 178.25 248.119 177.496C248.039 177.467 247.96 177.438 247.882 177.408ZM248.125 165.178C248.751 164.427 249.591 163.857 250.543 163.541C251.592 163.192 252.721 163.171 253.764 163.479C254.806 163.788 255.706 164.41 256.329 165.253C256.952 166.096 257.266 167.115 257.224 168.16C257.181 169.204 256.785 170.217 256.094 171.05C255.403 171.882 254.453 172.488 253.387 172.779C252.32 173.07 251.193 173.03 250.173 172.665C249.517 172.43 248.928 172.068 248.439 171.606C248.494 169.485 248.393 167.326 248.125 165.178ZM195.844 214.085L253.698 198.614C254.787 198.323 255.939 199.088 256.27 200.322C256.601 201.557 255.987 202.794 254.898 203.085L197.045 218.555C195.955 218.847 194.804 218.082 194.472 216.847C194.141 215.613 194.755 214.376 195.844 214.085ZM108.858 396.493C108.086 403.161 104.941 409.279 100.117 413.5C95.2919 417.722 89.1821 419.701 83.1314 419.003C77.0807 418.305 71.5845 414.987 67.8521 409.778C64.1197 404.569 62.4568 397.897 63.2291 391.229C63.2291 391.229 75.6289 398.233 86.0436 393.861C96.4582 389.489 108.858 396.493 108.858 396.493ZM114.51 414.468C112.976 416.998 111.216 419.253 109.31 421.107C108.149 421.99 107.163 422.831 106.249 423.611L106.249 423.611C101.454 427.697 98.6249 430.109 82.9172 428.297C66.5283 426.406 64.701 423.948 60.2516 417.962C59.623 417.117 58.942 416.201 58.1603 415.206C51.8454 407.17 52.3203 399.867 53.3796 390.722L59.898 391.474C58.3891 404.501 63.2681 411.405 63.2681 411.405C63.2681 411.405 67.3308 420.291 83.6268 422.171C99.9229 424.051 104.923 416.211 104.923 416.211C104.923 416.211 111.596 407.533 112.838 396.805L119.671 397.593C120.544 397.43 121.443 397.371 122.346 397.421C124.623 397.548 126.805 398.362 128.569 399.743C130.334 401.124 131.586 402.998 132.14 405.087C132.694 407.176 132.52 409.369 131.645 411.339C130.769 413.31 129.239 414.953 127.28 416.025C125.322 417.098 123.04 417.542 120.773 417.292C118.507 417.042 116.376 416.111 114.698 414.637C114.635 414.582 114.572 414.525 114.51 414.468ZM119.246 403.187C120.105 402.718 121.096 402.496 122.098 402.552C123.202 402.613 124.26 403.008 125.116 403.678C125.971 404.348 126.578 405.256 126.847 406.269C127.115 407.282 127.031 408.345 126.607 409.3C126.182 410.256 125.44 411.053 124.491 411.573C123.541 412.093 122.434 412.308 121.336 412.187C120.236 412.066 119.203 411.614 118.39 410.9C117.866 410.44 117.452 409.887 117.167 409.279C118.001 407.327 118.703 405.282 119.246 403.187ZM52.5996 429.458L112.097 436.322C113.218 436.452 114.007 437.586 113.859 438.855C113.712 440.125 112.685 441.049 111.565 440.92L52.067 434.056C50.9468 433.927 50.1579 432.793 50.305 431.523C50.452 430.254 51.4794 429.329 52.5996 429.458ZM71.5697 20.3788C70.7973 27.0469 67.6529 33.1646 62.8282 37.3862C58.0036 41.6076 51.8938 43.5871 45.843 42.8891C39.7923 42.1911 34.2961 38.8727 30.5638 33.6641C26.8314 28.4553 25.1685 21.783 25.9408 15.1149C25.9408 15.1149 38.3406 22.1188 48.7552 17.7468C59.1699 13.3749 71.5697 20.3788 71.5697 20.3788ZM77.2219 38.3544C75.688 40.8844 73.9278 43.1391 72.0214 44.9927C70.8608 45.8764 69.8748 46.7169 68.9602 47.4965L68.9602 47.4965C64.1661 51.5831 61.3366 53.9949 45.6289 52.1828C29.24 50.2921 27.4126 47.8338 22.9632 41.8483C22.3346 41.0026 21.6537 40.0866 20.872 39.0919C14.5571 31.0558 15.032 23.7532 16.0913 14.6077L22.6097 15.3597C21.1008 28.3867 25.9798 35.2914 25.9798 35.2914C25.9798 35.2914 30.0425 44.1766 46.3385 46.0566C62.6345 47.9366 67.6344 40.0968 67.6344 40.0968C67.6344 40.0968 74.3072 31.4187 75.5499 20.6905L82.3824 21.4787C83.2561 21.3157 84.155 21.2567 85.0581 21.3069C87.3346 21.4336 89.5168 22.2479 91.2811 23.629C93.0454 25.01 94.2974 26.8842 94.8514 28.9732C95.4054 31.0622 95.2319 33.2547 94.3565 35.2251C93.4811 37.1956 91.9504 38.839 89.9921 39.9113C88.0335 40.9836 85.7516 41.4277 83.4849 41.1777C81.2183 40.9277 79.0877 39.9967 77.4097 38.5233C77.3463 38.4676 77.2837 38.4113 77.2219 38.3544ZM81.9574 27.0726C82.8166 26.6039 83.8078 26.3822 84.8099 26.438C85.9137 26.4994 86.9717 26.8942 87.8272 27.5639C88.6827 28.2335 89.2898 29.1422 89.5584 30.1551C89.827 31.168 89.7429 32.2311 89.3184 33.1865C88.8939 34.1419 88.1517 34.9387 87.2023 35.4586C86.2526 35.9787 85.1462 36.1939 84.0472 36.0727C82.948 35.9515 81.915 35.5002 81.1014 34.7857C80.5779 34.3261 80.1633 33.7734 79.8791 33.1648C80.7128 31.2126 81.4143 29.1681 81.9574 27.0726ZM15.3113 53.3445L74.8091 60.2084C75.9293 60.3376 76.7182 61.4716 76.5711 62.7413C76.4241 64.0109 75.3967 64.9354 74.2765 64.8061L14.7787 57.9422C13.6585 57.813 12.8696 56.679 13.0167 55.4094C13.1637 54.1397 14.1911 53.2152 15.3113 53.3445ZM1412.34 220.582C1410.01 225.273 1406.08 228.934 1401.41 230.759C1396.75 232.584 1391.74 232.424 1387.49 230.314C1383.23 228.204 1380.08 224.317 1378.72 219.509C1377.36 214.7 1377.91 209.363 1380.24 204.672C1380.24 204.672 1387.49 213.087 1396.29 212.627C1405.09 212.167 1412.34 220.582 1412.34 220.582ZM1411.72 235.27C1409.93 236.722 1408.04 237.912 1406.15 238.77C1405.06 239.112 1404.11 239.469 1403.24 239.8L1403.24 239.8C1398.63 241.534 1395.92 242.557 1384.87 237.08C1373.34 231.365 1372.65 229.078 1370.97 223.51V223.51V223.51C1370.73 222.723 1370.47 221.871 1370.16 220.934C1367.66 213.368 1369.94 208.133 1373.14 201.699L1377.73 203.972C1373.17 213.136 1374.92 219.493 1374.92 219.493C1374.92 219.493 1375.55 227.088 1387.01 232.77C1398.48 238.453 1404.22 234.018 1404.22 234.018C1404.22 234.018 1411.42 229.409 1415.18 221.862L1419.99 224.244C1420.67 224.355 1421.35 224.549 1422 224.824C1423.63 225.518 1425.02 226.692 1425.95 228.172C1426.88 229.651 1427.3 231.358 1427.15 233.037C1427.01 234.717 1426.3 236.281 1425.13 237.496C1423.97 238.712 1422.41 239.514 1420.69 239.784C1418.96 240.054 1417.17 239.778 1415.57 238.996C1413.98 238.214 1412.66 236.968 1411.82 235.443C1411.79 235.386 1411.75 235.328 1411.72 235.27ZM1418.19 228.238C1418.95 228.121 1419.73 228.22 1420.45 228.525C1421.25 228.862 1421.92 229.431 1422.37 230.148C1422.82 230.866 1423.02 231.693 1422.95 232.508C1422.88 233.322 1422.54 234.08 1421.97 234.67C1421.41 235.259 1420.65 235.648 1419.82 235.779C1418.98 235.91 1418.11 235.776 1417.34 235.397C1416.56 235.018 1415.93 234.413 1415.52 233.674C1415.26 233.199 1415.1 232.683 1415.05 232.162C1416.18 230.949 1417.24 229.633 1418.19 228.238ZM1362.3 229.929L1404.16 250.675C1404.95 251.066 1405.23 252.107 1404.78 253C1404.34 253.893 1403.34 254.3 1402.55 253.91L1360.69 233.163C1359.91 232.773 1359.63 231.732 1360.07 230.839C1360.52 229.946 1361.52 229.538 1362.3 229.929ZM1291.42 86.8503C1292.35 92.0052 1291.38 97.2827 1288.73 101.522C1286.08 105.761 1281.96 108.615 1277.28 109.455C1272.61 110.296 1267.75 109.054 1263.79 106.003C1259.82 102.952 1257.07 98.3426 1256.14 93.1878C1256.14 93.1878 1266.99 95.6288 1273.78 90.0191C1280.57 84.4093 1291.42 86.8503 1291.42 86.8503ZM1299.7 99.0058C1299.13 101.241 1298.32 103.321 1297.32 105.135C1296.65 106.056 1296.1 106.906 1295.59 107.694C1292.94 111.826 1291.37 114.264 1279.22 116.446C1266.56 118.722 1264.63 117.297 1259.96 113.827C1259.3 113.337 1258.58 112.806 1257.77 112.239C1251.24 107.658 1249.95 102.096 1248.67 95.0257L1253.71 94.1203C1255.53 104.191 1260.73 108.251 1260.73 108.251C1260.73 108.251 1265.77 113.973 1278.37 111.71C1290.97 109.447 1292.93 102.465 1292.93 102.465C1292.93 102.465 1295.96 94.4809 1294.46 86.1874L1299.74 85.2384C1300.36 84.92 1301.02 84.6736 1301.7 84.5078C1303.43 84.0901 1305.24 84.2073 1306.87 84.8418C1308.5 85.4764 1309.86 86.5945 1310.75 88.0303C1311.63 89.4661 1312 91.1429 1311.79 92.8118C1311.58 94.4808 1310.81 96.0529 1309.59 97.2946C1308.37 98.5364 1306.77 99.3818 1305.02 99.7052C1303.27 100.029 1301.46 99.8127 1299.88 99.0897C1299.82 99.0624 1299.76 99.0344 1299.7 99.0058ZM1300.69 89.5126C1301.22 88.9691 1301.91 88.5804 1302.68 88.3965C1303.51 88.194 1304.39 88.2508 1305.18 88.5585C1305.97 88.8661 1306.63 89.4083 1307.06 90.1045C1307.49 90.8006 1307.67 91.6137 1307.57 92.4229C1307.47 93.2321 1307.09 93.9944 1306.5 94.5964C1305.91 95.1986 1305.13 95.6085 1304.28 95.7653C1303.43 95.9221 1302.56 95.8174 1301.79 95.4669C1301.3 95.2414 1300.86 94.9218 1300.51 94.5311C1300.69 92.8852 1300.76 91.2001 1300.69 89.5126ZM1256.84 124.137L1302.84 115.873C1303.7 115.718 1304.55 116.387 1304.72 117.369C1304.9 118.35 1304.34 119.272 1303.48 119.428L1257.48 127.692C1256.62 127.847 1255.77 127.178 1255.59 126.196C1255.42 125.215 1255.97 124.293 1256.84 124.137ZM923.863 256.219C922.48 263.781 918.427 270.536 912.597 275C906.767 279.463 899.637 281.268 892.775 280.018C885.914 278.768 879.882 274.565 876.008 268.334C872.135 262.103 870.735 254.354 872.118 246.792C872.118 246.792 885.762 255.723 897.991 251.506C910.22 247.289 923.863 256.219 923.863 256.219ZM928.972 277.182C927.03 279.959 924.849 282.403 922.531 284.379C921.139 285.302 919.949 286.189 918.845 287.011L918.845 287.011C913.06 291.322 909.646 293.867 891.833 290.622C873.247 287.236 871.344 284.29 866.709 277.118L866.709 277.117C866.054 276.104 865.345 275.007 864.526 273.811C857.914 264.157 859.004 255.847 860.902 245.476L868.294 246.823C865.591 261.596 870.648 269.851 870.648 269.851C870.648 269.851 874.624 280.307 893.104 283.674C911.584 287.041 917.886 278.456 917.886 278.456C917.886 278.456 926.162 269.039 928.388 256.873L936.136 258.284C937.147 258.163 938.178 258.163 939.207 258.288C941.798 258.603 944.231 259.697 946.143 261.407C948.056 263.117 949.346 265.352 949.822 267.781C950.298 270.209 949.935 272.702 948.787 274.888C947.639 277.074 945.766 278.837 943.448 279.916C941.129 280.995 938.488 281.332 935.917 280.877C933.346 280.422 930.981 279.199 929.174 277.389C929.106 277.321 929.039 277.252 928.972 277.182ZM935.231 264.645C936.247 264.173 937.397 263.994 938.538 264.133C939.794 264.286 940.974 264.816 941.901 265.645C942.828 266.474 943.454 267.558 943.685 268.736C943.916 269.913 943.74 271.121 943.183 272.181C942.626 273.241 941.718 274.097 940.594 274.62C939.47 275.143 938.189 275.306 936.943 275.085C935.696 274.865 934.549 274.272 933.673 273.394C933.11 272.83 932.677 272.168 932.398 271.451C933.497 269.282 934.453 266.999 935.231 264.645ZM857.102 289.682L924.574 301.974C925.845 302.206 926.661 303.561 926.398 305C926.134 306.44 924.891 307.42 923.621 307.188L856.148 294.896C854.878 294.665 854.062 293.31 854.325 291.87C854.588 290.43 855.832 289.451 857.102 289.682Z" fill="#2F2105"/>
</g>
<g style="mix-blend-mode:overlay">
<path fill-rule="evenodd" clip-rule="evenodd" d="M1082.08 665.556C1081.42 673.827 1077.8 681.52 1072.02 686.942C1066.24 692.364 1058.77 695.071 1051.27 694.468C1043.76 693.865 1036.83 690.001 1032 683.725C1027.16 677.45 1024.82 669.278 1025.49 661.007C1025.49 661.007 1041.11 669.129 1053.79 663.281C1066.46 657.434 1082.08 665.556 1082.08 665.556ZM1089.84 687.522C1088.05 690.713 1085.98 693.574 1083.7 695.946C1082.31 697.087 1081.12 698.168 1080.03 699.17C1074.28 704.424 1070.89 707.525 1051.4 705.959C1031.07 704.325 1028.71 701.366 1022.96 694.162V694.162L1022.96 694.162C1022.14 693.144 1021.26 692.042 1020.25 690.846C1012.11 681.189 1012.38 672.146 1013.3 660.802L1021.38 661.452C1020.08 677.611 1026.4 685.932 1026.4 685.932C1026.4 685.932 1031.8 696.736 1052.02 698.36C1072.23 699.985 1078.07 690.085 1078.07 690.085C1078.07 690.085 1085.94 679.078 1087.02 665.77L1095.49 666.451C1096.56 666.213 1097.67 666.101 1098.79 666.125C1101.61 666.184 1104.34 667.096 1106.58 668.727C1108.82 670.357 1110.44 672.619 1111.22 675.176C1111.99 677.734 1111.87 680.45 1110.88 682.922C1109.88 685.393 1108.06 687.489 1105.68 688.898C1103.31 690.307 1100.51 690.953 1097.7 690.741C1094.89 690.53 1092.22 689.471 1090.08 687.722C1090 687.656 1089.92 687.589 1089.84 687.522ZM1095.21 673.381C1096.25 672.765 1097.46 672.448 1098.7 672.474C1100.07 672.503 1101.39 672.945 1102.48 673.736C1103.56 674.527 1104.35 675.623 1104.73 676.863C1105.1 678.103 1105.05 679.42 1104.56 680.619C1104.08 681.817 1103.2 682.834 1102.05 683.516C1100.9 684.2 1099.54 684.513 1098.17 684.41C1096.81 684.308 1095.52 683.794 1094.48 682.946C1093.81 682.401 1093.28 681.736 1092.9 680.996C1093.85 678.549 1094.63 675.993 1095.21 673.381ZM1014 708.693L1087.8 714.624C1089.19 714.736 1090.21 716.103 1090.09 717.678C1089.96 719.253 1088.73 720.439 1087.34 720.328L1013.54 714.396C1012.15 714.284 1011.12 712.917 1011.25 711.342C1011.38 709.767 1012.61 708.581 1014 708.693ZM861.938 559.303C862.99 563.22 862.587 567.355 860.817 570.798C859.047 574.24 856.055 576.708 852.5 577.659C848.945 578.609 845.118 577.965 841.861 575.867C838.603 573.769 836.182 570.389 835.13 566.471C835.13 566.471 843.657 567.655 848.534 562.887C853.411 558.12 861.938 559.303 861.938 559.303ZM869.119 568.147C868.821 569.909 868.335 571.567 867.677 573.031C867.221 573.785 866.855 574.476 866.515 575.117C864.732 578.477 863.68 580.46 854.451 582.928C844.822 585.502 843.248 584.527 839.414 582.151C838.873 581.816 838.286 581.452 837.625 581.067C832.287 577.954 830.926 573.746 829.484 568.372L833.313 567.348C835.368 575.002 839.648 577.798 839.648 577.798C839.648 577.798 843.91 581.889 853.484 579.328C863.059 576.768 864.121 571.254 864.121 571.254C864.121 571.254 865.936 564.898 864.244 558.595L868.258 557.521C868.713 557.236 869.205 557.003 869.723 556.831C871.03 556.397 872.438 556.37 873.737 556.754C875.036 557.139 876.157 557.914 876.933 558.964C877.71 560.015 878.101 561.285 878.048 562.587C877.996 563.888 877.502 565.151 876.641 566.188C875.779 567.225 874.596 567.981 873.267 568.344C871.938 568.706 870.533 568.656 869.262 568.201C869.214 568.183 869.167 568.166 869.119 568.147ZM869.266 560.758C869.644 560.304 870.152 559.96 870.727 559.769C871.361 559.558 872.043 559.545 872.673 559.731C873.303 559.918 873.846 560.294 874.223 560.803C874.6 561.312 874.789 561.928 874.764 562.559C874.738 563.19 874.499 563.803 874.081 564.306C873.663 564.808 873.09 565.175 872.445 565.351C871.801 565.527 871.12 565.502 870.504 565.281C870.107 565.139 869.751 564.921 869.456 564.642C869.489 563.36 869.428 562.056 869.266 560.758ZM837.677 590.308L872.633 580.961C873.291 580.785 873.987 581.247 874.187 581.993C874.388 582.739 874.016 583.486 873.358 583.662L838.402 593.01C837.744 593.186 837.048 592.724 836.848 591.978C836.647 591.232 837.019 590.484 837.677 590.308ZM402.945 771.651C404.86 778.78 404.125 786.306 400.904 792.571C397.683 798.835 392.239 803.327 385.769 805.057C379.299 806.787 372.334 805.614 366.405 801.796C360.477 797.978 356.071 791.827 354.157 784.697C354.157 784.697 369.675 786.85 378.551 778.174C387.427 769.497 402.945 771.651 402.945 771.651ZM416.014 787.747C415.472 790.953 414.586 793.97 413.389 796.635C412.56 798.007 411.893 799.265 411.274 800.431L411.274 800.431C408.029 806.546 406.114 810.155 389.319 814.646C371.795 819.332 368.93 817.557 361.953 813.234C360.967 812.623 359.9 811.961 358.697 811.26C348.981 805.594 346.506 797.935 343.88 788.157L350.85 786.293C354.59 800.222 362.378 805.311 362.378 805.311C362.378 805.311 370.135 812.755 387.56 808.096C404.985 803.436 406.918 793.401 406.918 793.401C406.918 793.401 410.221 781.833 407.141 770.362L414.447 768.408C415.274 767.888 416.169 767.465 417.113 767.152C419.492 766.362 422.054 766.313 424.418 767.013C426.782 767.712 428.822 769.123 430.235 771.035C431.649 772.947 432.361 775.259 432.265 777.627C432.169 779.995 431.27 782.294 429.702 784.181C428.135 786.069 425.982 787.445 423.563 788.104C421.144 788.764 418.588 788.673 416.274 787.844C416.187 787.813 416.1 787.78 416.014 787.747ZM416.281 774.299C416.969 773.473 417.893 772.846 418.94 772.498C420.094 772.115 421.336 772.092 422.482 772.431C423.628 772.77 424.617 773.454 425.303 774.381C425.988 775.308 426.333 776.429 426.287 777.577C426.24 778.726 425.804 779.84 425.044 780.755C424.284 781.671 423.24 782.338 422.067 782.658C420.894 782.978 419.655 782.933 418.533 782.531C417.812 782.273 417.164 781.875 416.626 781.368C416.687 779.035 416.575 776.661 416.281 774.299ZM358.791 828.079L422.409 811.067C423.607 810.746 424.873 811.587 425.238 812.945C425.602 814.302 424.927 815.663 423.729 815.983L360.111 832.995C358.913 833.315 357.647 832.474 357.282 831.117C356.918 829.759 357.593 828.399 358.791 828.079ZM170.473 1039.72C169.623 1047.05 166.166 1053.78 160.86 1058.42C155.555 1063.06 148.836 1065.24 142.183 1064.47C135.529 1063.7 129.485 1060.05 125.381 1054.33C121.276 1048.6 119.448 1041.26 120.297 1033.93C120.297 1033.93 133.932 1041.63 145.385 1036.82C156.837 1032.02 170.473 1039.72 170.473 1039.72ZM176.688 1059.48C175.001 1062.27 173.066 1064.75 170.969 1066.78C169.693 1067.76 168.609 1068.68 167.603 1069.54L167.603 1069.54C162.331 1074.03 159.22 1076.68 141.947 1074.69C123.925 1072.61 121.916 1069.91 117.023 1063.33C116.332 1062.4 115.583 1061.39 114.723 1060.29C107.779 1051.46 108.301 1043.43 109.466 1033.37L116.634 1034.2C114.975 1048.52 120.34 1056.12 120.34 1056.12C120.34 1056.12 124.807 1065.89 142.727 1067.95C160.647 1070.02 166.145 1061.4 166.145 1061.4C166.145 1061.4 173.483 1051.86 174.85 1040.06L182.363 1040.93C183.324 1040.75 184.312 1040.68 185.305 1040.74C187.809 1040.88 190.208 1041.77 192.148 1043.29C194.088 1044.81 195.465 1046.87 196.074 1049.17C196.684 1051.46 196.493 1053.88 195.53 1056.04C194.568 1058.21 192.884 1060.02 190.731 1061.2C188.577 1062.37 186.068 1062.86 183.575 1062.59C181.083 1062.31 178.74 1061.29 176.895 1059.67C176.825 1059.61 176.756 1059.55 176.688 1059.48ZM181.896 1047.08C182.84 1046.56 183.93 1046.32 185.032 1046.38C186.246 1046.45 187.41 1046.88 188.35 1047.62C189.291 1048.35 189.959 1049.35 190.254 1050.47C190.549 1051.58 190.457 1052.75 189.99 1053.8C189.523 1054.85 188.707 1055.73 187.663 1056.3C186.619 1056.87 185.402 1057.11 184.194 1056.97C182.985 1056.84 181.849 1056.35 180.954 1055.56C180.379 1055.05 179.923 1054.45 179.61 1053.78C180.527 1051.63 181.298 1049.38 181.896 1047.08ZM108.608 1075.97L174.035 1083.52C175.267 1083.66 176.134 1084.9 175.973 1086.3C175.811 1087.7 174.681 1088.71 173.449 1088.57L108.023 1081.02C106.791 1080.88 105.923 1079.63 106.085 1078.24C106.247 1076.84 107.376 1075.83 108.608 1075.97ZM430.472 466.717C429.623 474.049 426.165 480.777 420.86 485.419C415.555 490.061 408.836 492.238 402.182 491.47C395.529 490.703 389.485 487.054 385.38 481.326C381.276 475.598 379.448 468.261 380.297 460.928C380.297 460.928 393.932 468.63 405.385 463.823C416.837 459.015 430.472 466.717 430.472 466.717ZM436.688 486.484C435.001 489.266 433.066 491.745 430.969 493.783C429.693 494.755 428.609 495.68 427.603 496.537L427.603 496.537C422.331 501.031 419.22 503.683 401.947 501.69C383.925 499.611 381.915 496.908 377.023 490.326C376.331 489.396 375.583 488.389 374.723 487.295C367.779 478.458 368.301 470.428 369.466 460.371L376.634 461.198C374.975 475.523 380.34 483.115 380.34 483.115C380.34 483.115 384.807 492.886 402.727 494.953C420.647 497.021 426.145 488.4 426.145 488.4C426.145 488.4 433.483 478.857 434.849 467.06L442.363 467.926C443.323 467.747 444.312 467.682 445.305 467.737C447.808 467.877 450.208 468.772 452.148 470.291C454.088 471.81 455.465 473.87 456.074 476.168C456.683 478.465 456.493 480.876 455.53 483.043C454.567 485.209 452.884 487.017 450.731 488.196C448.577 489.375 446.068 489.863 443.575 489.588C441.083 489.313 438.74 488.29 436.894 486.669C436.825 486.608 436.756 486.546 436.688 486.484ZM441.895 474.078C442.84 473.562 443.93 473.318 445.032 473.38C446.246 473.447 447.409 473.882 448.35 474.618C449.291 475.354 449.958 476.354 450.254 477.467C450.549 478.581 450.457 479.75 449.99 480.801C449.523 481.851 448.707 482.728 447.663 483.299C446.618 483.871 445.402 484.108 444.193 483.975C442.985 483.841 441.849 483.345 440.954 482.559C440.378 482.054 439.922 481.446 439.61 480.777C440.527 478.63 441.298 476.382 441.895 474.078ZM368.608 502.967L434.035 510.515C435.267 510.657 436.134 511.904 435.972 513.301C435.811 514.697 434.681 515.713 433.449 515.571L368.022 508.023C366.791 507.881 365.923 506.634 366.085 505.238C366.247 503.842 367.376 502.825 368.608 502.967ZM1348.35 569.309C1349.37 574.978 1348.31 580.781 1345.39 585.443C1342.48 590.104 1337.95 593.243 1332.81 594.167C1327.66 595.091 1322.32 593.725 1317.96 590.371C1313.6 587.016 1310.58 581.946 1309.56 576.278C1309.56 576.278 1321.48 578.962 1328.95 572.793C1336.42 566.625 1348.35 569.309 1348.35 569.309ZM1357.46 582.676C1356.82 585.134 1355.94 587.421 1354.83 589.416C1354.1 590.429 1353.5 591.363 1352.94 592.23C1350.02 596.773 1348.29 599.455 1334.94 601.854C1321.01 604.357 1318.9 602.79 1313.75 598.974V598.974V598.974C1313.03 598.435 1312.24 597.851 1311.35 597.228C1304.17 592.19 1302.74 586.074 1301.34 578.299L1306.88 577.303C1308.88 588.378 1314.6 592.842 1314.6 592.842C1314.6 592.842 1320.15 599.135 1334 596.646C1347.85 594.157 1350.01 586.48 1350.01 586.48C1350.01 586.48 1353.34 577.7 1351.69 568.58L1357.5 567.536C1358.18 567.186 1358.9 566.915 1359.66 566.733C1361.56 566.274 1363.55 566.403 1365.34 567.1C1367.14 567.798 1368.63 569.028 1369.61 570.607C1370.58 572.185 1370.98 574.029 1370.75 575.865C1370.52 577.7 1369.67 579.429 1368.33 580.794C1366.99 582.16 1365.23 583.089 1363.3 583.445C1361.38 583.8 1359.4 583.563 1357.65 582.768C1357.59 582.738 1357.52 582.707 1357.46 582.676ZM1358.54 572.237C1359.13 571.639 1359.89 571.211 1360.73 571.009C1361.65 570.787 1362.62 570.849 1363.49 571.187C1364.35 571.526 1365.08 572.122 1365.55 572.887C1366.02 573.653 1366.22 574.547 1366.11 575.437C1366 576.327 1365.58 577.165 1364.93 577.827C1364.28 578.489 1363.43 578.94 1362.49 579.112C1361.56 579.285 1360.6 579.17 1359.76 578.784C1359.21 578.536 1358.73 578.185 1358.35 577.755C1358.55 575.945 1358.62 574.092 1358.54 572.237ZM1310.33 610.311L1360.9 601.224C1361.86 601.053 1362.79 601.789 1362.98 602.869C1363.18 603.948 1362.56 604.962 1361.61 605.133L1311.03 614.22C1310.08 614.391 1309.15 613.655 1308.95 612.575C1308.76 611.496 1309.37 610.482 1310.33 610.311ZM1273.35 1013.05C1273.11 1018.81 1270.82 1024.24 1266.96 1028.16C1263.1 1032.08 1258 1034.16 1252.78 1033.95C1247.55 1033.74 1242.64 1031.25 1239.11 1027.03C1235.58 1022.81 1233.74 1017.21 1233.97 1011.45C1233.97 1011.45 1245.03 1016.66 1253.66 1012.25C1262.29 1007.85 1273.35 1013.05 1273.35 1013.05ZM1279.34 1028.07C1278.18 1030.33 1276.82 1032.38 1275.31 1034.08C1274.37 1034.91 1273.58 1035.69 1272.85 1036.42C1269.01 1040.22 1266.74 1042.47 1253.19 1041.92C1239.04 1041.34 1237.32 1039.35 1233.13 1034.52C1232.54 1033.83 1231.9 1033.09 1231.17 1032.29C1225.25 1025.82 1225.19 1019.54 1225.51 1011.65L1231.14 1011.87C1230.68 1023.12 1235.29 1028.71 1235.29 1028.71C1235.29 1028.71 1239.34 1036.06 1253.4 1036.63C1267.47 1037.2 1271.24 1030.17 1271.24 1030.17C1271.24 1030.17 1276.4 1022.32 1276.78 1013.06L1282.67 1013.3C1283.41 1013.11 1284.17 1013 1284.95 1012.99C1286.91 1012.95 1288.83 1013.51 1290.42 1014.58C1292.02 1015.65 1293.21 1017.17 1293.82 1018.92C1294.43 1020.67 1294.42 1022.56 1293.8 1024.3C1293.17 1026.04 1291.97 1027.55 1290.36 1028.59C1288.75 1029.63 1286.83 1030.16 1284.87 1030.09C1282.92 1030.02 1281.04 1029.36 1279.51 1028.2C1279.45 1028.16 1279.39 1028.12 1279.34 1028.07ZM1282.67 1018.12C1283.37 1017.66 1284.21 1017.41 1285.07 1017.39C1286.01 1017.37 1286.95 1017.64 1287.72 1018.16C1288.49 1018.68 1289.07 1019.42 1289.37 1020.27C1289.66 1021.12 1289.66 1022.03 1289.36 1022.88C1289.05 1023.72 1288.47 1024.45 1287.69 1024.96C1286.91 1025.46 1285.98 1025.72 1285.03 1025.68C1284.08 1025.65 1283.17 1025.33 1282.43 1024.77C1281.95 1024.41 1281.56 1023.96 1281.28 1023.46C1281.87 1021.74 1282.34 1019.94 1282.67 1018.12ZM1227.32 1044.84L1278.67 1046.92C1279.63 1046.96 1280.38 1047.88 1280.34 1048.98C1280.29 1050.08 1279.47 1050.93 1278.51 1050.89L1227.16 1048.81C1226.19 1048.77 1225.44 1047.85 1225.49 1046.75C1225.53 1045.66 1226.35 1044.8 1227.32 1044.84ZM677.024 1079.64C675.503 1087.95 671.047 1095.38 664.636 1100.29C658.225 1105.2 650.384 1107.18 642.838 1105.81C635.293 1104.43 628.661 1099.81 624.401 1092.96C620.141 1086.11 618.602 1077.59 620.123 1069.27C620.123 1069.27 635.126 1079.09 648.573 1074.45C662.021 1069.82 677.024 1079.64 677.024 1079.64ZM682.642 1102.69C680.506 1105.74 678.108 1108.43 675.56 1110.6C674.028 1111.62 672.72 1112.59 671.506 1113.5C665.145 1118.24 661.39 1121.04 641.802 1117.47C621.365 1113.74 619.271 1110.5 614.174 1102.62C613.454 1101.5 612.674 1100.3 611.774 1098.98C604.503 1088.36 605.702 1079.23 607.788 1067.82L615.917 1069.3C612.946 1085.55 618.506 1094.63 618.506 1094.63C618.506 1094.63 622.878 1106.12 643.2 1109.83C663.521 1113.53 670.451 1104.09 670.451 1104.09C670.451 1104.09 679.552 1093.73 682 1080.35L690.52 1081.91C691.631 1081.77 692.766 1081.77 693.896 1081.91C696.746 1082.26 699.421 1083.46 701.524 1085.34C703.627 1087.22 705.046 1089.68 705.569 1092.35C706.093 1095.02 705.694 1097.76 704.431 1100.16C703.169 1102.57 701.109 1104.51 698.56 1105.69C696.011 1106.88 693.107 1107.25 690.279 1106.75C687.451 1106.25 684.851 1104.91 682.864 1102.92C682.789 1102.84 682.715 1102.76 682.642 1102.69ZM689.524 1088.9C690.642 1088.38 691.906 1088.19 693.161 1088.34C694.543 1088.51 695.84 1089.09 696.859 1090C697.879 1090.91 698.567 1092.1 698.821 1093.4C699.075 1094.69 698.881 1096.02 698.269 1097.19C697.656 1098.35 696.658 1099.29 695.422 1099.87C694.186 1100.45 692.778 1100.62 691.407 1100.38C690.036 1100.14 688.775 1099.49 687.812 1098.52C687.192 1097.9 686.716 1097.17 686.41 1096.39C687.618 1094 688.669 1091.49 689.524 1088.9ZM603.61 1116.43L677.806 1129.95C679.203 1130.21 680.101 1131.69 679.811 1133.28C679.522 1134.86 678.154 1135.94 676.757 1135.68L602.561 1122.17C601.165 1121.91 600.267 1120.42 600.556 1118.84C600.846 1117.26 602.213 1116.18 603.61 1116.43Z" fill="#2F2105"/>
</g>
</svg>
